PathFileType	4	(X/Y/Z)	D:\TRACE\v60_Jaco2_6-2-23\JustBodyDRS_Motion2_8-v60.trc
DataRate	CameraRate	NumFrames	NumMarkers	Units	OrigDataRate	OrigDataStartFrame	OrigNumFrames
100.00	100.00	      34	9	mm	100.00	2593	      6914
Frame#	Time	front left toe			Front right toe			aft left toe			aft right toe			Arm			FL body			FR body			AL Body			AR Body			
		X1	Y1	Z1	X2	Y2	Z2	X3	Y3	Z3	X4	Y4	Z4	X5	Y5	Z5	X6	Y6	Z6	X7	Y7	Z7	X8	Y8	Z8	X9	Y9	Z9	

2593	25.920	-291.13474	30.40761	-267.65689	35.04084	-8.37248	-277.66473	-326.33627	41.57920	360.30685	103.28094	86.08449	342.42300	-241.10912	1182.48230	-446.42981	-219.59451	549.42932	-408.83615	-59.33247	547.21851	-415.88120	-179.77283	598.61792	532.71893	-21.63617	591.42859	529.41602	
2594	25.930	-290.06668	43.04024	-268.40399	36.30730	-8.16845	-277.27463	-325.85559	41.12608	360.41507	104.26915	99.45284	342.73151	-241.38083	1181.50708	-445.72522	-218.60701	549.49023	-408.39758	-58.16473	547.31769	-414.65656	-178.45076	598.51276	534.92334	-22.02733	590.70050	530.48138	
2595	25.940	-289.89886	56.18188	-268.23849	37.09223	-7.88338	-277.02896	-324.87192	40.53145	360.37595	105.65137	112.78795	343.61746	-240.15637	1180.42334	-445.42944	-216.47623	548.77277	-407.14368	-56.97179	547.17914	-413.68573	-178.67575	597.51532	535.85120	-22.07923	590.31812	531.51941	
2596	25.950	-289.60693	68.53035	-267.67841	38.41581	-7.56046	-276.68726	-323.97632	40.09453	360.47702	106.29976	126.13007	345.02301	-238.76437	1179.77063	-444.85474	-216.27802	548.60333	-407.15427	-55.78730	546.92139	-412.85989	-178.83510	596.95013	535.88367	-22.07026	590.09100	532.45526	
2597	25.960	-288.92850	80.09700	-266.47144	39.68428	-7.35441	-276.52557	-322.88583	39.50457	360.90723	106.28392	138.99849	347.18512	-237.20181	1179.39087	-444.85046	-213.67928	547.03375	-405.89972	-54.54140	546.46539	-412.02805	-178.40013	596.89819	537.08624	-21.78010	590.19977	533.15021	
2598	25.970	-288.04025	91.23306	-264.98901	40.83226	-7.32055	-276.35342	-321.68619	39.09097	361.10876	105.66229	150.94992	349.61026	-235.94031	1178.78162	-445.55847	-212.94724	546.54114	-405.56284	-52.87877	545.89044	-411.41489	-177.99977	596.98236	537.70673	-21.33291	590.75238	534.14014	
2599	25.980	-286.82071	100.90704	-263.05646	41.90770	-6.91431	-275.96707	-320.49344	39.08688	361.20786	105.51539	161.77776	351.71054	-236.10803	1177.90344	-445.47058	-210.73373	545.39410	-404.72202	-50.75841	545.26099	-410.75900	-177.57451	597.33508	538.26129	-20.97835	591.00098	534.36310	
2600	25.990	-286.15350	109.31609	-261.69864	43.10714	-6.79562	-275.65222	-319.59192	39.02452	361.11176	105.22021	171.00717	353.94162	-236.59087	1177.19080	-445.40680	-209.34338	544.75494	-404.19492	-49.22271	544.64056	-410.04623	-176.95024	597.28870	538.54700	-20.31420	591.52441	535.29523	
2601	26.000	-285.82138	115.58420	-260.16629	44.29527	-6.34723	-275.24442	-318.12238	38.40252	361.34634	105.73759	177.53572	355.96628	-236.70216	1175.55017	-445.60175	-208.24707	544.09521	-404.05542	-47.39901	543.97510	-409.45801	-176.25110	597.39435	539.39545	-19.89198	591.78595	536.01093	
2602	26.010	-285.41025	118.53841	-257.94772	45.31468	-6.18393	-275.16629	-317.53723	38.18266	361.52783	106.65222	181.19672	358.33664	-235.82382	1174.22693	-445.31055	-205.93056	542.98328	-403.08850	-45.79108	543.69153	-408.67795	-175.43665	597.22223	539.74872	-19.49376	591.72864	536.77435	
2603	26.020	-285.42981	118.44727	-256.10947	46.78803	-5.96695	-274.79919	-316.41553	37.60751	361.52393	107.42165	181.60947	360.31143	-234.98413	1173.16516	-446.27219	-204.03883	542.14594	-402.61011	-44.71215	543.16089	-407.83832	-175.35818	597.18860	540.64966	-18.53028	592.21686	537.41791	
2604	26.030	-284.70068	115.48994	-254.20250	47.93030	-5.77359	-274.57175	-314.92880	36.95242	361.75027	108.46861	178.88150	362.42343	-234.29816	1172.67151	-446.26419	-203.02716	541.48560	-402.21127	-42.48068	542.75543	-407.34616	-174.39986	596.98077	540.78168	-17.81458	592.50763	537.98578	
2605	26.040	-283.03973	110.61661	-252.83296	49.15579	-5.46713	-274.04910	-314.13580	36.88351	362.17661	108.84148	174.61072	364.33060	-233.73593	1171.59937	-445.93930	-200.43748	540.71320	-401.53006	-40.08257	542.68567	-406.62811	-173.29532	597.04279	541.54889	-17.09306	592.88116	538.71588	
2606	26.050	-280.96091	105.13335	-251.56845	50.40440	-5.07219	-273.87299	-312.51050	36.29089	362.22897	109.24190	168.99908	365.85657	-233.75577	1171.37891	-445.68655	-198.74902	540.37988	-401.21918	-38.80906	542.28168	-406.07471	-172.69511	596.72900	542.09540	-16.13015	592.92743	539.26422	
2607	26.060	-279.15479	98.59089	-250.71605	51.57882	-4.80907	-273.72324	-311.78067	35.88234	362.34521	109.47672	162.71236	367.33521	-234.06990	1169.91980	-444.77789	-197.68938	539.96582	-401.06979	-37.41589	542.20465	-405.17401	-172.07666	596.26343	542.53497	-15.13890	592.45221	539.99945	
2608	26.070	-277.57355	91.23356	-249.87155	52.65260	-4.45215	-273.57959	-310.39429	34.87954	362.78036	110.02144	155.47792	368.84213	-234.03641	1169.48438	-443.69412	-194.92574	539.09906	-400.10153	-35.13525	542.21997	-404.76633	-170.91756	595.58118	543.07428	-14.44770	592.35828	540.54663	
2609	26.080	-276.81436	83.14404	-249.54640	54.18206	-4.00163	-273.24258	-309.11731	34.28636	363.00018	110.03922	147.04752	369.76428	-233.90717	1168.80371	-442.83942	-193.06712	538.57526	-399.67719	-33.33617	542.30554	-404.24069	-170.06221	595.06702	543.75269	-13.42578	592.17059	541.28577	
2610	26.090	-276.32751	75.19037	-249.46275	55.18716	-3.37962	-273.02527	-308.47873	34.10313	363.07687	109.96291	137.23120	370.54010	-233.55521	1168.60608	-442.26602	-192.07678	539.19629	-399.54352	-31.33009	542.52563	-403.68817	-168.82816	594.35913	544.19086	-11.90427	592.04309	542.37994	
2611	26.100	-275.93109	66.76859	-248.99535	56.33266	-2.86876	-272.78354	-307.18030	33.46343	363.31747	110.17461	126.76599	371.20532	-233.28502	1168.33252	-441.35516	-189.52180	538.69141	-398.81720	-29.91837	542.86133	-402.91446	-167.78131	593.56378	544.74091	-11.42205	591.54614	542.80548	
2612	26.110	-274.91647	57.91034	-249.01439	57.54015	-2.50738	-272.47891	-305.89078	32.72403	363.56018	110.81499	115.65763	372.16895	-233.20142	1168.15002	-440.79639	-187.97987	538.84576	-398.60843	-27.72961	543.24725	-402.57068	-166.73302	592.86292	546.11780	-9.74483	591.06677	543.81219	
2613	26.120	-273.63690	48.75186	-248.53915	58.69644	-2.04926	-272.22128	-305.03723	32.09074	363.83237	110.81056	105.07351	372.80139	-232.79297	1167.90979	-439.56009	-186.01642	538.59900	-397.87274	-25.63082	543.51013	-401.76559	-165.54990	592.06238	546.68481	-9.13478	590.60040	544.25037	
2614	26.130	-272.07745	39.63860	-247.84241	59.87876	-1.32137	-271.92917	-303.65021	31.21156	364.17856	110.77570	95.52236	372.92917	-232.17274	1167.96692	-438.18823	-184.72359	538.65906	-397.50089	-24.46813	543.64807	-400.87955	-164.61990	591.38800	547.17700	-7.63094	590.24774	545.07666	
2615	26.140	-270.35446	30.81038	-247.58264	60.97486	-0.51553	-271.47345	-302.41229	30.81994	364.60388	111.80222	85.90421	373.62817	-231.34671	1167.83752	-437.22974	-182.49387	538.74542	-396.90601	-22.16275	543.97614	-400.44504	-163.23552	590.86536	547.68237	-6.83681	589.73840	545.50031	
2616	26.150	-269.28876	22.50504	-247.67969	62.08187	0.07220	-271.19647	-301.30807	30.23318	364.72104	112.81774	77.15381	373.60934	-230.11336	1168.24158	-435.81897	-180.36301	538.53467	-396.01288	-20.99541	544.25415	-399.48279	-162.09613	589.87701	548.55383	-5.62113	589.20764	546.03186	
2617	26.160	-268.46378	14.88310	-247.82892	63.39874	0.64252	-270.69202	-299.67032	29.06183	365.19757	114.07961	68.69057	373.21820	-228.99467	1168.60022	-434.55609	-178.37202	538.65198	-395.47171	-18.42068	544.61639	-399.18103	-160.96889	589.02106	549.18396	-4.38968	588.59467	546.60870	
2618	26.170	-267.24286	8.21254	-247.87971	64.25565	0.81922	-270.47534	-298.75009	28.48358	365.47275	115.92578	61.38845	372.90149	-227.44510	1168.59790	-433.49115	-177.17958	538.98901	-395.44949	-17.23609	544.80377	-398.26910	-159.53493	587.81519	549.83240	-3.55288	587.73859	547.26483	
2619	26.180	-266.84116	8.22146	-250.23187	65.57385	1.52479	-270.12244	-298.83899	28.48644	365.42654	117.20660	54.71902	372.02707	-226.17693	1168.15112	-432.49295	-174.66998	538.87189	-394.53659	-14.60456	545.08582	-397.79117	-158.56444	586.88715	550.24451	-1.73513	586.58685	548.73950	
2620	26.190	-265.73154	5.18154	-249.24304	66.50751	2.03462	-269.84619	-296.95529	27.37523	365.86215	118.61461	47.95896	371.21106	-224.56552	1168.68140	-431.17328	-172.62915	539.68628	-393.78687	-12.87613	545.62665	-397.11514	-156.90167	585.94373	550.93311	-0.28613	585.54657	549.42151	
2621	26.200	-265.58023	7.38245	-249.71127	67.72733	2.62061	-269.76443	-295.76215	26.67199	366.18091	119.15796	40.61428	370.27194	-222.81212	1169.13440	-429.72147	-171.21606	541.21790	-393.60599	-11.11746	546.75897	-396.12164	-155.04379	585.05786	551.60352	1.04437	584.71350	549.70422	
2622	26.210	-263.76212	8.25138	-248.56544	69.02482	3.44067	-269.19284	-295.14911	26.33370	366.36298	119.82712	32.30879	368.98090	-220.53214	1170.71423	-427.86429	-168.48468	542.26605	-392.58264	-8.84593	548.07690	-395.57590	-153.90919	584.32874	552.48035	2.68309	584.14471	550.38580	
2623	26.220	-262.10394	8.94243	-248.05409	70.29565	4.28126	-268.86301	-293.58896	25.72501	366.65582	122.69958	28.13151	366.57941	-217.32179	1172.44189	-425.33884	-166.69119	543.07422	-392.10754	-7.00811	549.24908	-394.77722	-152.49261	584.42670	553.07532	3.58618	584.64893	551.07062	
2624	26.230	-260.80515	9.67029	-247.71487	71.67271	5.35889	-268.55649	-291.58304	25.47589	367.04138	125.68081	29.75941	368.88675	-214.09290	1175.49780	-423.05695	-164.10139	542.91968	-391.44305	-4.47830	549.73517	-393.98566	-151.59224	586.21082	553.63147	4.35471	587.16162	551.69373	
2625	26.240	-258.48618	9.30360	-246.54720	73.58871	9.05831	-269.09988	-287.90390	28.42765	366.02527	125.81807	28.34696	371.73840	-212.22330	1177.65247	-422.22427	-162.75040	544.36676	-391.81296	-2.30879	550.87158	-393.53809	-149.91432	586.90063	554.14911	6.37486	587.80170	552.88293	
2626	26.250	-257.46893	10.78033	-246.75401	72.62294	13.62467	-266.60840	-282.64618	32.09651	368.47607	126.25802	27.48172	369.69690	-211.09555	1177.96045	-422.52460	-159.43167	546.08630	-390.70111	-0.24493	552.49835	-393.03186	-149.08060	586.51355	554.51807	7.88628	587.15631	552.89417	
